# xmcd CD database file
#
# Track frame offsets:
#	150
#	15235
#	24802
#	35292
#	46177
#	55752
#	69697
#	83230
#	94002
#	106762
#	127090
#	148757
#	166610
#	186727
#	200125
#	216620
#
# Disc length: 3025 seconds
#
# Revision: 1
# Processed by: cddbd v1.5.2PL0 Copyright (c) Steve Scherf et al.
# Submitted via: CDex 1.70beta3
#
DISCID=dd0bcf10
DTITLE=Chet Baker - Ballads
DYEAR=1900
DGENRE=Jazz
TTITLE0=I fall in love to easily
TTITLE1=Come rain or come shine
TTITLE2=My funny valentine
TTITLE3=Like someone in love
TTITLE4=Embraceable you
TTITLE5=This is always
TTITLE6=Someone to watch over me
TTITLE7=The night we called it a day
TTITLE8=The thrill is gone
TTITLE9=Little girl blue
TTITLE10=You don't know what love is
TTITLE11=I wish I new
TTITLE12=I've never been in love before
TTITLE13=I get alone without you very well
TTITLE14=Gray December
TTITLE15=Let me be loved
EXTD=
EXTT0=
EXTT1=
EXTT2=
EXTT3=
EXTT4=
EXTT5=
EXTT6=
EXTT7=
EXTT8=
EXTT9=
EXTT10=
EXTT11=
EXTT12=
EXTT13=
EXTT14=
EXTT15=
PLAYORDER=
